<svg id="Layer_1" data-name="Layer 1" xmlns="http://www.w3.org/2000/svg" viewBox="0 0 782.175 578.239">
  <g id="Layer_8" data-name="Layer 8">
    <path d="M63.608,578.239c-22.3.022-42.222-15.117-49.784-37.839-16.216-48.918-30.5-139.532,32.988-237.545,70.2-108.374,210.641-220.41,309.423-231.887C510.986,53,554.241,248.379,623.678,293.846c59.992,39.283,146.872,98.19,158.228,221.3,2.925,31.515-18.3,59.63-47.4,62.8a48.852,48.852,0,0,1-5.27.288Z" fill="#f3f5fd"></path>
  </g>
  <g>
    <g>
      <path d="M496.737,184.981s-2.651-8.733-7.963-12.217-5.3.439-2.94,4.372,7.926,12.208,7.926,12.208" fill="#EDA59F"></path>
      <path d="M493.617,181.335s-9.3-12.177-14.74-12.177c0,0-8.764,4.192-8.64,6.9.186,4.081,15.007,19.31,15.007,19.31Z" fill="#EDA59F"></path>
    </g>
    <g>
      <path d="M559.9,565.091c-2.215-18.618-2.215-20.533-2.215-21.163h21c0-.063,0-.145,0-.245.074,1.555,1.133,11.035,2.072,18.928Z" fill="#EDA59F"></path>
      <path d="M643.578,567.6s-.07-21.748-.07-23.674h21c0,1.92.07,23.606.07,23.606Z" fill="#EDA59F"></path>
      <path d="M589.15,558.46l-37-.63c1.538-38.963,1.8-83.528,2.213-123.855a234.035,234.035,0,0,1,2.26-29.872c5.952-42.723,9.835-85.2,17.848-127.679l.267.079.782-5.33,76.077-4.695,3.96,49.7s9.909,171.947,14.429,241.085l-36.869,3.115C626.479,492.6,616.2,393.827,609.876,322.616c-7.261,34.67-12.2,70.568-18.514,104.941C590.1,470.583,589.032,515.562,589.15,558.46Z" fill="#55affc"></path>
      <path d="M618.05,575.724a4.109,4.109,0,0,1-4.077-4.427h0a4.109,4.109,0,0,1,2.659-3.529l24.443-8.187a3.465,3.465,0,0,1,2.872.319,19.1,19.1,0,0,0,11.468,3.4,17.026,17.026,0,0,0,8.82-3.222,1.546,1.546,0,0,1,2.527,1.2v11.952a2.678,2.678,0,0,1-2.688,2.678Z" fill="#c1d8ed"></path>
      <path d="M534.316,575.724a4.108,4.108,0,0,1-4.076-4.427h0a4.106,4.106,0,0,1,2.658-3.529l24.443-8.187a3.464,3.464,0,0,1,2.872.319,19.1,19.1,0,0,0,11.468,3.4,17.029,17.029,0,0,0,8.821-3.222,1.546,1.546,0,0,1,2.527,1.2v11.952a2.678,2.678,0,0,1-2.689,2.678Z" fill="#c1d8ed"></path>
    </g>
    <path d="M548.175,244.26a10.5,10.5,0,0,1-6.56-2.3l-59.479-47.59,13.121-16.4L545.289,218l30-50.78,18.08,10.684L557.215,239.1a10.5,10.5,0,0,1-9.04,5.158Z" fill="#2f3235"></path>
    <path d="M570.586,274.521c4.19,9.63,86.52,13.63,87.62-3.31.7-10.78-8.8-20.19-8.8-41.2s19.33-47.84,3.58-63.59c-4.57-4.57-12.46-7.52-22.08-7.53-.72,5.61-34.78,5.63-35.04.13-1.3.02-2.31.04-2.94.07-33.18,1.43-18.6,39.19-18.28,66.93C575.036,258.481,566.266,264.6,570.586,274.521Z" fill="#2f3235"></path>
    <path d="M595.866,159.021c.26,5.5,3.25,13.59,12.48,14.2,12.3.81,21.84-8.72,22.56-14.33h-.03C618.766,158.891,602.926,158.911,595.866,159.021Z" fill="#EDA59F"></path>
    <path d="M479.95,305.867l-.666-8.668c-1.667-17.335,4.333-35.671,20-54.673,12.669-15,21-26.67,21-39.672,0-14-8.668-23.336-27.336-23.67-11.668,0-25,3.667-33.338,10l-10-29.337c12-7.667,31.337-13.668,52.339-13.668,41.339,0,60.341,24,60.341,50.672,0,24-14.668,40.672-29,57.007-13,15.336-18.336,29-17.669,45.006l.333,7Zm-8.334,46.339c0-15.335,10.668-26,25.336-26,15,0,25,10.668,25.336,26,0,14.668-10,26-25.336,26C481.951,378.209,471.616,366.874,471.616,352.206Z" fill="#fdb754"></path>
    <g>
      <path d="M577.9,216.013s2.315-13.171-7.206-14.26c-6.007-.687-21.109-9.037-23.974-2.058-2.485,6.055,11.937,13.263,17.1,14.6C568.445,215.484,577.9,216.013,577.9,216.013Z" fill="#EDA59F"></path>
      <path d="M573.942,202.8s-12.269-6.728-15.626-6.571c-2.972.139,2.083,5.888,2.083,5.888Z" fill="#EDA59F"></path>
    </g>
    <path d="M617.365,257.563a10.907,10.907,0,0,1-6.62-2.239l-50.465-38.56,13.239-17.326,39.512,30.191,24.93-55.816,19.909,8.892-30.551,68.4a10.907,10.907,0,0,1-9.954,6.456Z" fill="#2f3235"></path>
    <g>
      <path d="M627.969,164.7s-7.733-4.1-6.006-25.157l-15.977-2.962s1.795,18.878-6.287,24.872Z" fill="#EDA59F"></path>
      <g opacity="0.15">
        <path d="M602.973,157.509l13.272-10.153-10.424-.108A28.756,28.756,0,0,1,602.973,157.509Z"></path>
      </g>
      <path d="M631.028,131.381c-1.106,6.389-4.593,12.438-10.228,14.5a40.5,40.5,0,0,1-19.357,2.615c-17.49-1.434-14.03-41.2-5.727-48.926s32.673-2.833,35.637,10.087C632.887,116.341,632.08,125.3,631.028,131.381Z" fill="#EDA59F"></path>
      <path d="M585.249,114.122s3.427-28.265,34.472-21.323a24.557,24.557,0,0,1,12.764,8.25A14.014,14.014,0,1,1,638.3,119.5c-.028.4-.058.81-.1,1.224-1.9,17.5-16.464,26.262-16.464,26.262s-3.91-2.961-2.519-31.235C612.476,116.325,597.052,117.155,585.249,114.122Z" fill="#0f1011"></path>
      <g>
        <circle cx="606.009" cy="125.011" r="1.449" fill="#0f1011"></circle>
        <circle cx="594.578" cy="124.074" r="1.449" fill="#0f1011"></circle>
        <path d="M592.067,120.986a.681.681,0,0,1-.008-1.362l3.838-.047h.008a.681.681,0,0,1,.009,1.361l-3.839.048Z" fill="#0f1011"></path>
        <path d="M609.136,122.385a.725.725,0,0,1-.159-.018l-3.785-.911a.681.681,0,0,1,.318-1.324l3.785.91a.681.681,0,0,1-.159,1.343Z" fill="#0f1011"></path>
        <path d="M605.339,136.423s-5.349.564-9.1-.746c0,0,.03,3.523,4.262,3.87S605.339,136.423,605.339,136.423Z" fill="#fff"></path>
      </g>
      <path d="M613.547,128.557a6.143,6.143,0,0,0,12.244,1,6.041,6.041,0,0,0-5.62-6.624C615.793,122.794,613.824,125.176,613.547,128.557Z" fill="#EDA59F"></path>
      <g opacity="0.15">
        <path d="M599.577,133.048a.5.5,0,0,0,.147-.978l-2.947-.905,2.061-4.59a.5.5,0,1,0-.912-.41l-2.293,5.107a.5.5,0,0,0,.309.683l3.488,1.071A.5.5,0,0,0,599.577,133.048Z"></path>
      </g>
    </g>
  </g>
  <g>
    <polygon points="181.815 171.844 408.38 171.844 448.293 202.544 448.293 0 181.815 0 181.815 171.844" fill="#c1d8ed"></polygon>
    <g>
      <rect x="214.685" y="36.85" width="200.739" height="14.006" transform="translate(630.109 87.706) rotate(-180)" fill="#fff"></rect>
      <rect x="214.685" y="77.793" width="200.739" height="14.006" transform="translate(630.109 169.592) rotate(-180)" fill="#fff"></rect>
      <rect x="214.685" y="118.736" width="200.739" height="14.006" transform="translate(630.109 251.478) rotate(-180)" fill="#fff"></rect>
    </g>
  </g>
  <g>
    <polygon points="270.143 340.568 93.345 340.568 62.199 364.524 62.199 206.471 270.143 206.471 270.143 340.568" fill="#dee8f5"></polygon>
    <g>
      <rect x="87.849" y="235.227" width="156.645" height="10.929" fill="#fff"></rect>
      <rect x="87.849" y="267.176" width="156.645" height="10.929" fill="#fff"></rect>
      <rect x="87.849" y="299.126" width="156.645" height="10.929" fill="#fff"></rect>
    </g>
  </g>
</svg>